<?xml version="1.0" encoding="UTF-8" standalone="no"?>
<!-- Created with Inkscape (http://www.inkscape.org/) -->

<svg
   width="136.78339mm"
   height="136.78339mm"
   viewBox="0 0 136.78339 136.78339"
   version="1.1"
   id="svg5"
   xml:space="preserve"
   inkscape:version="1.2.1 (9c6d41e410, 2022-07-14)"
   sodipodi:docname="logo.svg"
   inkscape:export-filename=".github/logo.png"
   inkscape:export-xdpi="129.98656"
   inkscape:export-ydpi="129.98656"
   xmlns:inkscape="http://www.inkscape.org/namespaces/inkscape"
   xmlns:sodipodi="http://sodipodi.sourceforge.net/DTD/sodipodi-0.dtd"
   xmlns="http://www.w3.org/2000/svg"
   xmlns:svg="http://www.w3.org/2000/svg"><sodipodi:namedview
     id="namedview7"
     pagecolor="#ffffff"
     bordercolor="#666666"
     borderopacity="1.0"
     inkscape:showpageshadow="2"
     inkscape:pageopacity="0.0"
     inkscape:pagecheckerboard="0"
     inkscape:deskcolor="#d1d1d1"
     inkscape:document-units="mm"
     showgrid="false"
     inkscape:zoom="0.70710678"
     inkscape:cx="101.11627"
     inkscape:cy="318.90516"
     inkscape:window-width="1262"
     inkscape:window-height="1052"
     inkscape:window-x="0"
     inkscape:window-y="0"
     inkscape:window-maximized="1"
     inkscape:current-layer="layer1" /><defs
     id="defs2" /><g
     inkscape:label="Layer 1"
     inkscape:groupmode="layer"
     id="layer1"
     transform="translate(-30.381111,-76.017319)"><g
       id="g9433"
       transform="translate(-19.067151,-53.879488)"><path
         id="path3506"
         style="fill:#ea0064;fill-opacity:1;stroke:none;stroke-width:0.264583px;stroke-linecap:butt;stroke-linejoin:miter;stroke-opacity:1"
         d="m 66.231381,137.15382 c -0.01478,0.0682 -0.156361,0.71683 -0.321448,1.00276 -0.160458,0.27793 -0.651933,0.92517 -0.684965,1.54652 -0.03303,0.62135 0.259041,0.75933 0.259041,0.75933 l 0.252909,9.57309 0.494463,2.62203 z"
         sodipodi:nodetypes="csscccc" /><path
         style="fill:#ea0064;fill-opacity:1;stroke:none;stroke-width:0.264583px;stroke-linecap:butt;stroke-linejoin:miter;stroke-opacity:1"
         d="m 63.137558,138.30686 c 0,0 -0.203596,3.45324 2.348991,3.9274 2.9722,0.55211 -1.884144,1.10575 -2.909034,-0.43493 -0.995992,-1.49724 0.361579,-3.41601 0.560043,-3.49247 z"
         id="path9426"
         sodipodi:nodetypes="cssc" /><path
         style="fill:#ea0064;fill-opacity:1;stroke:none;stroke-width:0.264583px;stroke-linecap:butt;stroke-linejoin:miter;stroke-opacity:1"
         d="m 61.748082,143.0949 c 0,0 1.242094,0.085 1.95135,0.54106 0.709257,0.45608 0.825286,0.49917 0.887766,0.64323 0.06248,0.14405 0.0358,0.39065 0.0358,0.39065 l -1.069676,-0.004 c 0,0 -0.08285,0.44027 0.01813,0.51475 0.100969,0.0745 2.487926,1.08395 2.487926,1.08395 l 0.02612,1.34508 c 0,0 -1.708643,-0.68119 -1.782521,-0.64416 -0.07388,0.037 -0.142262,0.0982 -0.142262,0.0982 0,0 0.308964,0.51797 0.253322,0.94726 -0.05564,0.42929 -0.486689,1.05694 -0.575215,1.00286 -0.08853,-0.0541 -0.02537,-1.14359 -0.165992,-1.3351 -0.140617,-0.19152 -0.341399,-0.66046 -0.77977,-0.11824 -0.438371,0.54222 -0.598645,0.64143 -0.713366,1.56724 -0.114722,0.92581 -0.250482,0.91374 -0.351041,0.18868 -0.100559,-0.72507 -0.03793,-0.72443 -0.184003,-0.7507 -0.146074,-0.0263 -0.07877,0.29682 -0.170363,0.30302 -0.09159,0.006 -0.382618,0.0172 -0.466136,0.0601 -0.08352,0.0429 -0.212702,0.0463 -0.03404,-0.61965 0.178659,-0.66591 0.167673,-0.70978 0.07847,-0.73657 -0.0892,-0.0268 -0.536202,0.089 -0.407131,-0.53422 0.129071,-0.62323 0.308141,-0.67716 0.301677,-1.28018 -0.0065,-0.60301 -0.184751,-0.91265 0.464043,-1.29411 0.648794,-0.38146 1.294262,-0.5779 1.260891,-0.74378 -0.03337,-0.16588 -0.18064,-0.30321 -0.606417,-0.3917 -0.425778,-0.0885 -0.317559,-0.23359 -0.317559,-0.23359 z"
         id="path9428" /></g><g
       id="g10994"
       style="display:inline"><path
         id="rect7407"
         style="fill:#757575;fill-opacity:1;fill-rule:nonzero;stroke-width:0.601185;stroke-linecap:round;stroke-linejoin:round;stroke-dasharray:none"
         d="M 99.348994 76.019903 C 98.874971 76.015934 98.400894 76.016632 97.926859 76.022487 C 95.714229 80.399699 95.569279 83.184291 95.566279 83.692819 C 94.293431 83.759782 93.022834 83.866414 91.756693 84.012697 C 91.670852 83.511287 91.063568 80.790275 88.150195 76.843108 C 87.213509 76.989573 86.280113 77.15556 85.350366 77.340752 C 83.98217 82.048771 84.352654 84.812465 84.443444 85.312876 C 83.204637 85.611872 81.975496 85.949482 80.757881 86.325217 C 80.581085 85.848066 79.482275 83.284783 75.890995 79.938527 C 74.997254 80.254088 74.110462 80.58817 73.230692 80.940533 C 72.753528 85.819026 73.626945 88.467368 73.808434 88.942628 C 72.645843 89.46347 71.500085 90.020419 70.372468 90.612811 C 70.110745 90.176171 68.558468 87.857966 64.411592 85.226576 C 63.591236 85.700487 62.780599 86.191304 61.980733 86.698838 C 62.410864 91.581679 63.757502 94.025158 64.023502 94.459087 C 62.976679 95.184036 61.953153 95.941385 60.953922 96.730267 C 60.616173 96.349004 58.662886 94.354348 54.101627 92.527422 C 53.382578 93.14355 52.676622 93.774909 51.983927 94.42033 C 53.306655 99.141242 55.081036 101.29636 55.422477 101.67415 C 54.527097 102.57853 53.65998 103.51033 52.823152 104.46881 C 52.420871 104.15594 50.133335 102.55326 45.313016 101.59302 C 44.719757 102.33039 44.142255 103.08014 43.580305 103.84146 C 45.750657 108.23967 47.892081 110.03303 48.29733 110.34184 C 47.583888 111.39484 46.903582 112.46997 46.257661 113.56541 C 45.804587 113.33151 43.260213 112.17514 38.344966 112.11434 C 37.897732 112.94783 37.468204 113.79054 37.056156 114.64183 C 40.00016 118.56758 42.435671 119.93775 42.890942 120.16708 C 42.383732 121.33285 41.913179 122.51435 41.480175 123.7095 C 40.991704 123.5627 38.277959 122.89214 33.435188 123.73275 C 33.149189 124.63396 32.881836 125.5407 32.633687 126.453 C 36.251134 129.77257 38.897478 130.67403 39.38728 130.81604 C 39.103548 132.05487 38.858844 133.30225 38.653474 134.55638 C 38.146242 134.50147 35.355451 134.33949 30.750081 136.05293 C 30.63506 136.9912 30.539563 137.93173 30.463793 138.87395 C 34.631487 141.47431 37.399121 141.87502 37.90675 141.92492 C 37.85614 143.19464 37.84543 144.46569 37.87471 145.73606 C 37.365983 145.77501 34.592237 146.12682 30.381111 148.65475 C 30.440969 149.5981 30.520666 150.54036 30.619856 151.48041 C 35.195858 153.27303 37.990253 153.15987 38.498445 153.11597 C 38.682762 154.37334 38.906264 155.62482 39.169205 156.8682 C 38.676318 156.99968 36.014719 157.85399 32.341198 161.11032 C 32.573902 162.02664 32.825942 162.93761 33.096708 163.84348 C 37.924901 164.76619 40.650044 164.14268 41.141178 164.00523 L 41.142728 164.00833 C 41.555664 165.21051 42.005919 166.39942 42.49355 167.57349 C 42.033302 167.79302 39.574457 169.11999 36.563679 172.99383 C 36.961311 173.85193 37.377016 174.70165 37.810115 175.54251 C 42.726671 175.56607 45.291232 174.45448 45.749165 174.23045 C 46.376654 175.33654 47.038864 176.42287 47.734574 177.48761 C 47.322619 177.78771 45.150455 179.5428 42.904894 183.90221 C 43.453926 184.67285 44.01865 185.43188 44.599365 186.17907 C 49.436527 185.30157 51.752848 183.73914 52.161694 183.43505 C 52.982331 184.40735 53.833355 185.35394 54.713476 186.27312 C 54.363834 186.64357 52.552144 188.76633 51.148319 193.46286 C 51.830033 194.1198 52.525443 194.76283 53.23398 195.39091 C 57.827036 193.64222 59.815889 191.68177 60.161722 191.30796 C 61.147612 192.11336 62.158527 192.88802 63.193062 193.6303 C 62.917647 194.05848 61.527661 196.477 61.01335 201.35075 C 61.804548 201.87161 62.606639 202.37623 63.418888 202.86384 C 67.611441 200.3035 69.205354 198.01228 69.476399 197.58148 C 70.593946 198.19255 71.730229 198.76836 72.883943 199.3085 C 72.692172 199.77985 71.771856 202.41219 72.164607 207.29716 C 73.038326 207.66422 73.919558 208.0131 74.807857 208.34361 C 78.457126 205.05884 79.601402 202.51479 79.788431 202.04167 C 80.999574 202.43763 82.222782 202.79592 83.456424 203.1155 C 83.354767 203.61398 82.93533 206.36967 84.221752 211.09951 C 85.148252 211.30027 86.078726 211.48202 87.012796 211.64418 C 89.994509 207.74685 90.650802 205.03645 90.747452 204.53712 C 92.010954 204.70446 93.279299 204.83175 94.550838 204.92005 C 94.542801 205.42864 94.63821 208.21496 96.774474 212.62862 C 97.722218 212.65552 98.670675 212.66399 99.618745 212.65239 C 101.83138 208.27519 101.97632 205.49059 101.97932 204.98206 C 103.25214 204.91508 104.52277 204.80846 105.78891 204.66218 C 105.87474 205.16361 106.48204 207.8846 109.39541 211.83177 C 110.33211 211.6853 111.26549 211.51931 112.19524 211.33412 C 113.56343 206.62612 113.19296 203.86243 113.10216 203.362 C 114.34099 203.06301 115.57012 202.72538 116.78772 202.34966 C 116.96449 202.82681 118.06332 205.39009 121.65461 208.73635 C 122.54834 208.42079 123.43512 208.08669 124.31491 207.73434 C 124.79207 202.85584 123.91864 200.2075 123.73717 199.73225 C 124.89978 199.21141 126.04553 198.65447 127.17314 198.06207 C 127.43487 198.49871 128.98711 200.8169 133.13401 203.4483 C 133.95436 202.97439 134.765 202.48357 135.56487 201.97604 C 135.13476 197.09319 133.7881 194.64971 133.5221 194.21579 C 134.56889 193.49083 135.59242 192.7335 136.59168 191.94461 C 136.92941 192.32587 138.8827 194.32002 143.44398 196.14694 C 144.16301 195.53083 144.86898 194.89997 145.56168 194.25455 C 144.23893 189.53363 142.46458 187.37854 142.12313 187.00073 C 143.01851 186.09635 143.88563 185.16404 144.72245 184.20555 C 145.12472 184.51843 147.41227 186.12165 152.23259 187.08186 C 152.82582 186.34452 153.40335 185.59473 153.9653 184.83342 C 151.79497 180.43518 149.65354 178.64185 149.24827 178.33304 C 149.96174 177.28003 150.64202 176.20492 151.28794 175.10946 C 151.741 175.34333 154.2854 176.49974 159.20064 176.56054 C 159.64787 175.72707 160.07738 174.88434 160.48945 174.03304 C 157.54541 170.10731 155.10995 168.73662 154.65466 168.50728 C 155.16189 167.34153 155.63239 166.16053 156.06543 164.96538 C 156.5539 165.11228 159.26766 165.78273 164.11042 164.94212 C 164.39641 164.0409 164.66381 163.13417 164.91192 162.22188 C 161.29448 158.90231 158.6481 158.00086 158.15832 157.85884 C 158.44203 156.62 158.68679 155.37262 158.89213 154.11849 C 159.39936 154.17341 162.19017 154.3354 166.79552 152.62195 C 166.91055 151.6837 167.00601 150.74315 167.08181 149.80093 C 162.91412 147.20055 160.14647 146.79985 159.63885 146.74995 C 159.68945 145.48025 159.70009 144.20921 159.67089 142.93882 C 160.1796 142.89989 162.95332 142.54804 167.16449 140.02013 C 167.10463 139.07676 167.02495 138.13452 166.92575 137.19446 C 162.34974 135.40185 159.55532 135.515 159.04716 135.5589 C 158.86284 134.30154 158.63931 133.05007 158.3764 131.80668 C 158.86926 131.6752 161.53092 130.82089 165.20441 127.56456 C 164.97172 126.64823 164.71967 125.73728 164.4489 124.83139 C 159.62044 123.90756 156.89428 124.53023 156.40288 124.66655 C 155.98994 123.46435 155.53965 122.27544 155.05205 121.10139 C 155.51229 120.88187 157.97113 119.55436 160.98192 115.68053 C 160.58431 114.82244 160.16859 113.97271 159.73549 113.13185 C 154.81894 113.10829 152.25438 114.21989 151.79644 114.44391 C 151.16898 113.33784 150.50673 112.252 149.81103 111.18727 C 150.22297 110.88718 152.39518 109.13211 154.64071 104.77267 C 154.09169 104.00203 153.52695 103.24301 152.94624 102.49581 C 148.10908 103.37333 145.79275 104.93574 145.38391 105.23982 C 144.56325 104.26754 143.71222 103.3209 142.83213 102.40176 C 143.18175 102.03129 144.99347 99.908548 146.39729 95.212013 C 145.71558 94.555062 145.02015 93.91206 144.31162 93.283965 C 139.71854 95.032659 137.72972 96.993097 137.38388 97.36692 C 136.398 96.561512 135.38708 95.786867 134.35254 95.044581 C 134.62794 94.61639 136.01797 92.197876 136.53225 87.324122 C 135.74108 86.803248 134.93896 86.298637 134.12672 85.811036 C 129.93416 88.371357 128.34027 90.662603 128.06921 91.093401 C 126.9517 90.482317 125.81541 89.905991 124.66166 89.365858 C 124.85346 88.894506 125.77375 86.262691 125.381 81.377715 C 124.50728 81.010646 123.62602 80.661772 122.73775 80.331268 C 119.08846 83.616031 117.94419 86.160091 117.75717 86.633208 C 116.54601 86.237253 115.32281 85.878954 114.08918 85.559372 C 114.19082 85.060908 114.61024 82.305219 113.32385 77.575363 C 112.39735 77.374602 111.46689 77.192848 110.53281 77.030694 C 107.55108 80.92804 106.89475 83.63843 106.79815 84.137754 C 105.53464 83.970409 104.26632 83.842464 102.99477 83.754314 C 103.00284 83.245718 102.9074 80.459918 100.77113 76.046258 C 100.29728 76.032438 99.823018 76.023872 99.348994 76.019903 z M 98.772802 94.110271 A 50.380337 50.226986 0 0 1 149.15319 144.3377 A 50.380337 50.226986 0 0 1 98.772802 194.5646 A 50.380337 50.226986 0 0 1 48.392415 144.3377 A 50.380337 50.226986 0 0 1 98.772802 94.110271 z " /><path
         id="path9435-3"
         style="fill:#757575;fill-opacity:1;fill-rule:nonzero;stroke:none;stroke-width:0.264999;stroke-linecap:butt;stroke-linejoin:miter;stroke-dasharray:none;stroke-opacity:1;image-rendering:auto"
         d="m 98.77229,96.094235 c -0.09213,0.424244 -0.97554,4.461475 -2.006058,6.241025 -1.001708,1.72963 -4.070106,5.75736 -4.276387,9.62424 -0.206186,3.86693 1.61707,4.72567 1.61707,4.72567 l 0.293944,11.08103 c -0.09409,-0.018 -0.181374,-0.0359 -0.278032,-0.0541 -15.934354,-2.95094 -14.663468,-24.44213 -14.663468,-24.44213 -1.238924,0.47582 -9.713638,12.41722 -3.496217,21.73511 3.215358,4.81892 12.471061,6.34603 18.529188,6.23636 l 0.541155,20.42442 c -4.30246,-1.82428 -12.402578,-5.27746 -12.865373,-5.61775 -0.630406,-0.46349 -0.112823,-3.20375 -0.112823,-3.20375 l 6.677156,0.0251 c 0,0 0.166046,-1.53421 -0.223921,-2.43071 -0.39011,-0.89652 -1.114208,-1.16446 -5.541712,-4.00284 -4.427365,-2.83841 -12.181298,-3.36747 -12.181298,-3.36747 0,0 -0.675127,0.90325 1.982787,1.45396 2.657867,0.55071 3.577124,1.40492 3.785462,2.43723 0.208359,1.03235 -3.821395,2.25492 -7.871432,4.62889 -4.049989,2.37399 -2.936739,4.30123 -2.896344,8.05405 0.04038,3.75283 -1.077221,4.08795 -1.882929,7.96658 -0.805732,3.87866 1.983979,3.15802 2.540767,3.32471 0.556835,0.16668 0.625384,0.44001 -0.489851,4.58423 -1.115234,4.14425 -0.308661,4.12376 0.21273,3.85677 0.521414,-0.26696 2.338528,-0.33541 2.910246,-0.37393 0.571833,-0.0385 0.151025,-2.04907 1.062828,-1.88562 0.911851,0.16343 0.520902,0.15931 1.148622,4.67168 0.627722,4.51236 1.475743,4.58772 2.19185,-1.17397 0.71606,-5.76167 1.716156,-6.37913 4.452597,-9.75359 2.736557,-3.37446 3.990154,-0.45605 4.867917,0.73583 0.877926,1.19186 0.484124,7.9724 1.036685,8.30891 0.552581,0.33652 3.243182,-3.57029 3.590512,-6.24193 0.347305,-2.67165 -1.581581,-5.89494 -1.581581,-5.89494 0,0 0.427118,-0.38071 0.888254,-0.61115 0.314877,-0.15735 5.3373,1.75082 8.523778,2.98885 l 0.427305,16.11738 3.086651,16.31833 3.086662,-16.31833 0.42728,-16.11738 c 3.18654,-1.23803 8.20897,-3.1462 8.52373,-2.98885 0.4612,0.23044 0.88836,0.61115 0.88836,0.61115 0,0 -1.9289,3.22329 -1.5816,5.89494 0.34738,2.67164 3.0388,6.57845 3.59141,6.24193 0.55262,-0.33651 0.15783,-7.11705 1.03572,-8.30891 0.8778,-1.19188 2.13143,-4.11029 4.86788,-0.73583 2.73653,3.37446 3.73655,3.99192 4.45276,9.75359 0.71609,5.76169 1.56406,5.68633 2.19177,1.17397 0.62765,-4.51237 0.23683,-4.50819 1.1486,-4.67168 0.9118,-0.16345 0.49202,1.84701 1.06373,1.88562 0.57178,0.0385 2.388,0.10693 2.90937,0.37393 0.5213,0.26699 1.32798,0.28748 0.21273,-3.85677 -1.11531,-4.14422 -1.04667,-4.41749 -0.48992,-4.58423 0.55685,-0.16669 3.34753,0.55395 2.54172,-3.32471 -0.80564,-3.87863 -1.92422,-4.21375 -1.88384,-7.96658 0.0404,-3.75282 1.15371,-5.68006 -2.89626,-8.05405 -4.05007,-2.37397 -8.07979,-3.59654 -7.87159,-4.62889 0.20836,-1.03231 1.1277,-1.88652 3.78559,-2.43723 2.65789,-0.55071 1.98278,-1.45396 1.98278,-1.45396 0,0 -7.75389,0.52906 -12.18139,3.36747 -4.42748,2.83838 -5.15155,3.10632 -5.54157,4.00284 -0.38999,0.8965 -0.22392,2.43071 -0.22392,2.43071 l 6.67806,-0.0251 c 0,0 0.51656,2.74026 -0.11382,3.20375 -0.46275,0.34032 -8.56316,3.79451 -12.86534,5.61867 l 0.54116,-20.42534 c 6.05806,0.10957 15.31382,-1.41744 18.52917,-6.23636 6.21739,-9.31789 -2.2573,-21.25929 -3.4962,-21.73511 0,0 1.27089,21.49119 -14.66349,24.44213 -0.0964,0.018 -0.18397,0.0359 -0.27795,0.0541 l 0.29387,-11.08103 c 0,0 1.82329,-0.85874 1.61704,-4.72567 -0.20617,-3.86688 -3.27373,-7.89461 -4.27544,-9.62424 -1.03049,-1.77955 -1.914721,-5.816781 -2.006966,-6.241025 z" /></g></g></svg>
