<?xml version="1.0" encoding="UTF-8" standalone="no"?>
<!-- Created with Inkscape (http://www.inkscape.org/) -->

<svg
   width="136.78339mm"
   height="136.78339mm"
   viewBox="0 0 136.78339 136.78339"
   version="1.1"
   id="svg5"
   xml:space="preserve"
   inkscape:version="1.2.2 (b0a8486541, 2022-12-01)"
   sodipodi:docname="logo.svg"
   inkscape:export-filename="../icon.png"
   inkscape:export-xdpi="24.750757"
   inkscape:export-ydpi="24.750757"
   xmlns:inkscape="http://www.inkscape.org/namespaces/inkscape"
   xmlns:sodipodi="http://sodipodi.sourceforge.net/DTD/sodipodi-0.dtd"
   xmlns:xlink="http://www.w3.org/1999/xlink"
   xmlns="http://www.w3.org/2000/svg"
   xmlns:svg="http://www.w3.org/2000/svg"><sodipodi:namedview
     id="namedview7"
     pagecolor="#ffffff"
     bordercolor="#666666"
     borderopacity="1.0"
     inkscape:showpageshadow="2"
     inkscape:pageopacity="0.0"
     inkscape:pagecheckerboard="0"
     inkscape:deskcolor="#d1d1d1"
     inkscape:document-units="mm"
     showgrid="false"
     inkscape:zoom="1"
     inkscape:cx="268.5"
     inkscape:cy="289.5"
     inkscape:window-width="1262"
     inkscape:window-height="1052"
     inkscape:window-x="0"
     inkscape:window-y="0"
     inkscape:window-maximized="1"
     inkscape:current-layer="layer1" /><defs
     id="defs2"><linearGradient
       inkscape:collect="always"
       id="linearGradient4036"><stop
         style="stop-color:#ffef1c;stop-opacity:1;"
         offset="0"
         id="stop4032" /><stop
         style="stop-color:#ff4f3d;stop-opacity:1;"
         offset="1"
         id="stop4034" /></linearGradient><linearGradient
       inkscape:collect="always"
       xlink:href="#linearGradient4036"
       id="linearGradient4038"
       x1="98.772293"
       y1="96.094238"
       x2="98.772804"
       y2="194.56461"
       gradientUnits="userSpaceOnUse"
       gradientTransform="translate(-0.13678417,1.1711947)" /><filter
       inkscape:collect="always"
       style="color-interpolation-filters:sRGB"
       id="filter5635"
       x="-0.022201677"
       y="-0.018664486"
       width="1.0444034"
       height="1.037329"><feGaussianBlur
         inkscape:collect="always"
         stdDeviation="0.9826752"
         id="feGaussianBlur5637" /></filter></defs><g
     inkscape:label="Layer 1"
     inkscape:groupmode="layer"
     id="layer1"
     transform="translate(-30.381111,-76.017319)"><g
       id="g5142"
       inkscape:label="shadow"
       style="display:none;mix-blend-mode:normal;fill:#000000;fill-opacity:1;stroke-width:1.28718;filter:url(#filter5635)"
       transform="translate(1.5875,1.5875)"><path
         id="path5134"
         style="display:inline;fill:#000000;fill-opacity:1;fill-rule:nonzero;stroke-width:0.773831;stroke-linecap:round;stroke-linejoin:round;stroke-dasharray:none"
         inkscape:label="cut-gear"
         d="m 110.35673,77.000004 c -0.21696,0.285131 -0.39632,0.549677 -0.58921,0.821691 0.0299,0.267339 0.0613,0.534148 0.0761,0.810867 0.14235,2.675938 -0.43796,4.909192 -1.4123,6.490588 -0.0688,0.111659 -0.14885,0.155001 -0.22045,0.259497 l -0.12578,9.61092 a 50.226986,50.380337 89.85 0 1 41.06784,49.212723 50.226986,50.380337 89.85 0 1 -42.78049,49.77679 l -0.21989,11.47662 c 0.35401,1.17119 1.24868,3.41866 3.4196,6.34384 0.9363,-0.14892 1.86894,-0.31745 2.79821,-0.50507 1.35586,-4.71156 0.97857,-7.47437 0.88645,-7.97456 1.23804,-0.30223 2.46614,-0.64263 3.68276,-1.02153 0.17801,0.47668 1.28339,3.03707 4.88343,6.37391 0.8929,-0.31789 1.77873,-0.65454 2.6576,-1.00918 0.46439,-4.87974 -0.41597,-7.52539 -0.5987,-8.00016 1.16125,-0.52388 2.30569,-1.08424 3.43174,-1.6796 0.26287,0.43595 1.82133,2.75048 5.97511,5.37102 0.8191,-0.47605 1.62834,-0.96921 2.42689,-1.47883 -0.4429,-4.88169 -1.7958,-7.32164 -2.06294,-7.75484 1.04489,-0.72771 2.06662,-1.48799 3.06381,-2.27949 0.33874,0.38037 2.29679,2.36977 6.86285,4.18475 0.71741,-0.618 1.42158,-1.25075 2.11258,-1.89798 -1.3351,-4.71743 -3.11453,-6.86792 -3.45697,-7.24484 0.89301,-0.90672 1.75713,-1.84111 2.59143,-2.80179 0.4031,0.31183 2.69487,1.9085 7.51768,2.85609 0.59131,-0.7389 1.16724,-1.48979 1.7272,-2.25257 -2.18184,-4.39253 -4.328,-6.1806 -4.73408,-6.48835 0.71071,-1.05487 1.38802,-2.13127 2.03106,-3.22841 0.45369,0.23268 3.00122,1.38214 7.91661,1.43007 0.44504,-0.83463 0.87212,-1.6788 1.28196,-2.53118 -2.9543,-3.918 -5.39295,-5.28211 -5.84884,-5.51026 0.50417,-1.16708 0.97133,-2.34894 1.40124,-3.54522 0.48885,0.14563 3.20467,0.8084 8.04522,-0.0449 0.28362,-0.90196 0.54833,-1.80876 0.79404,-2.72169 -3.62611,-3.31009 -6.27484,-4.2048 -6.76499,-4.34553 0.28047,-1.23959 0.52174,-2.48804 0.72379,-3.7427 0.50738,0.0537 3.29892,0.20862 7.89975,-1.51688 0.11257,-0.93855 0.20539,-1.87956 0.27873,-2.82197 -4.17447,-2.58946 -6.94321,-2.98253 -7.45096,-3.03111 0.0473,-1.26982 0.0551,-2.54105 0.0226,-3.81135 0.50861,-0.0401 3.28124,-0.39976 7.48577,-2.93868 -0.0623,-0.94321 -0.14442,-1.88477 -0.24608,-2.82456 -4.58069,-1.78062 -7.37502,-1.66059 -7.88306,-1.61536 -0.18762,-1.25687 -0.41418,-2.5076 -0.68035,-3.7503 0.49252,-0.13277 3.15184,-0.99366 6.8168,-4.2596 -0.23509,-0.91572 -0.48995,-1.8261 -0.76308,-2.73128 -4.83085,-0.91118 -7.5552,-0.28166 -8.04624,-0.14406 -0.41609,-1.20111 -0.86916,-2.38856 -1.35983,-3.56133 0.45966,-0.22073 2.91513,-1.5545 5.91576,-5.4362 -0.39985,-0.85705 -0.81831,-1.70626 -1.25362,-2.54599 -4.91658,-0.0107 -7.47803,1.10775 -7.93539,1.33297 -0.63034,-1.10441 -1.29532,-2.18865 -1.99381,-3.25156 0.41116,-0.30117 2.57877,-2.06169 4.81287,-6.42698 -0.55103,-0.7692 -1.11768,-1.52682 -1.70035,-2.2725 -4.83485,0.89018 -7.14737,2.45863 -7.55542,2.76379 -0.8232,-0.97012 -1.6764,-1.91461 -2.5589,-2.83144 0.34865,-0.37139 2.15492,-2.498826 3.54644,-7.199016 -0.68343,-0.655163 -1.38105,-1.296455 -2.09122,-1.922694 -4.58847,1.760712 -6.57168,3.726354 -6.91653,4.101079 -0.98799,-0.802823 -2.00121,-1.57453 -3.03769,-2.314103 0.27428,-0.428912 1.65794,-2.850901 2.15945,-7.72598 -0.79253,-0.5188 -1.59596,-1.021593 -2.40947,-1.507066 -4.18584,2.571287 -5.77367,4.866555 -6.0436,5.29806 -1.1191,-0.608155 -2.25691,-1.181588 -3.41207,-1.718698 0.19057,-0.471853 1.10386,-3.105583 0.69833,-7.989509 -0.87468,-0.36478 -1.75657,-0.711325 -2.64571,-1.039501 -3.64068,3.294301 -4.77844,5.840974 -4.96422,6.314579 -1.21219,-0.392783 -2.4361,-0.747393 -3.67056,-1.063745 0.10033,-0.498727 0.51234,-3.256043 -0.78644,-7.98251 -0.92701,-0.198334 -1.85794,-0.377524 -2.79244,-0.537232 z M 87.973492,76.871187 c -0.936299,0.148917 -1.868955,0.317449 -2.798213,0.505073 -1.355864,4.71158 -0.978549,7.474393 -0.886448,7.974563 -1.23802,0.302239 -2.466149,0.64327 -3.682774,1.02219 -0.178045,-0.476684 -1.283397,-3.037073 -4.883423,-6.37391 -0.892911,0.317897 -1.77875,0.653855 -2.657594,1.008519 -0.46439,4.87972 0.415962,7.526044 0.598695,8.000828 -1.161223,0.523883 -2.305679,1.083588 -3.43174,1.678929 -0.262866,-0.435953 -1.821367,-2.749829 -5.975114,-5.370351 -0.819111,0.476057 -1.628351,0.969202 -2.426885,1.478828 0.442912,4.881693 1.795798,7.321617 2.062933,7.754846 -1.04492,0.727688 -2.066641,1.487322 -3.063804,2.278817 -0.338745,-0.380378 -2.296825,-2.369767 -6.862847,-4.184744 -0.717433,0.618007 -1.421585,1.251414 -2.112588,1.898646 1.335081,4.717428 3.11454,6.867939 3.456969,7.244839 -0.893009,0.90672 -1.757105,1.84046 -2.591419,2.80112 -0.403099,-0.3118 -2.694873,-1.90848 -7.517683,-2.85608 -0.591327,0.73893 -1.167257,1.49044 -1.727211,2.25323 2.181857,4.3925 4.328036,6.17993 4.734093,6.48768 -0.710682,1.05486 -1.388022,2.13195 -2.031072,3.22908 -0.453684,-0.23271 -3.001212,-1.38281 -7.916598,-1.43074 -0.445048,0.83466 -0.872143,1.67882 -1.281962,2.53118 2.95427,3.91803 5.392974,5.28146 5.848842,5.5096 -0.504156,1.16709 -0.971371,2.35026 -1.401245,3.54655 -0.488852,-0.14553 -3.204663,-0.80898 -8.045212,0.0442 -0.283638,0.90194 -0.548291,1.80941 -0.79405,2.72235 3.626121,3.3101 6.274826,4.20415 6.764997,4.34487 -0.280487,1.23956 -0.521709,2.48804 -0.723796,3.7427 -0.507372,-0.0536 -3.298884,-0.20861 -7.899749,1.51688 -0.112564,0.93856 -0.205426,1.87956 -0.27873,2.82197 4.174485,2.58944 6.943203,2.9832 7.450961,3.03178 -0.04728,1.26984 -0.05456,2.54041 -0.02195,3.81069 -0.508624,0.0401 -3.281946,0.39973 -7.486435,2.93867 0.06232,0.94319 0.144434,1.88477 0.246084,2.82456 4.580675,1.78063 7.374982,1.66058 7.883057,1.61536 0.187607,1.25688 0.414163,2.50761 0.680357,3.7503 -0.49254,0.13277 -3.151832,0.99433 -6.816811,4.26027 0.235102,0.9157 0.489956,1.82546 0.763092,2.73062 4.830588,0.91007 7.554159,0.27944 8.044929,0.14071 l 0.0013,0.003 c 0.416082,1.2011 0.869134,2.38854 1.359837,3.56133 -0.459672,0.22074 -2.914473,1.5545 -5.915096,5.43621 0.399877,0.85706 0.817661,1.7056 1.252959,2.54532 4.916597,0.0107 7.478051,-1.10775 7.935395,-1.33298 0.630384,1.10444 1.295308,2.1893 1.993801,3.25223 -0.411167,0.30117 -2.578734,2.06171 -4.812873,6.42699 0.551047,0.7692 1.117686,1.52683 1.700354,2.27249 4.834843,-0.89015 7.14737,-2.45862 7.555419,-2.76378 0.823179,0.97013 1.67637,1.91456 2.558894,2.83143 -0.348671,0.37136 -2.154245,2.49884 -3.545768,7.19902 0.683431,0.65516 1.380369,1.29647 2.090548,1.92269 4.588456,-1.76071 6.572344,-3.72635 6.917196,-4.10107 0.987994,0.80282 2.000551,1.57454 3.037026,2.3141 -0.274294,0.4289 -1.657901,2.85089 -2.159451,7.72598 0.792557,0.51878 1.595955,1.02158 2.409476,1.50706 4.185832,-2.5713 5.773686,-4.86655 6.043603,-5.29806 1.119142,0.60815 2.25695,1.18092 3.412074,1.71804 -0.190537,0.47184 -1.103873,3.10624 -0.698336,7.99017 0.874677,0.36476 1.756549,0.71131 2.645708,1.0395 3.640655,-3.29431 4.778432,-5.84097 4.964221,-6.31458 1.212175,0.39279 2.436743,0.74807 3.671216,1.06442 -0.100352,0.49875 -0.513019,3.25539 0.78578,7.98184 0.927023,0.19833 1.857952,0.37752 2.792442,0.53723 2.053022,-2.69806 2.984675,-4.80467 3.403837,-6.02753 L 90.452656,193.87475 A 50.226986,50.380337 89.85 0 1 48.392698,144.46977 50.226986,50.380337 89.85 0 1 89.634108,94.978225 l 8.61e-4,-9.626645 c -0.06343,-0.09369 -0.136335,-0.13119 -0.197545,-0.23055 -0.974469,-1.581765 -1.554838,-3.813097 -1.412106,-6.489959 0.02678,-0.502038 0.08778,-0.982633 0.162357,-1.454022 -0.07554,-0.104469 -0.135319,-0.199597 -0.214183,-0.305862 z"
         transform="matrix(0.7768654,-0.0067796,0.0067796,0.7768654,21.06108,32.947947)" /><path
         id="path5136"
         style="display:inline;fill:#000000;fill-opacity:1;fill-rule:nonzero;stroke:none;stroke-width:0.3411;stroke-linecap:butt;stroke-linejoin:miter;stroke-dasharray:none;stroke-opacity:1;image-rendering:auto"
         d="m 98.934218,63.012772 c -0.09213,0.424244 -0.975622,4.461732 -2.006139,6.241281 -1.001707,1.729628 -4.069744,5.75705 -4.276024,9.623926 -0.206186,3.866926 1.617082,4.725664 1.617082,4.725664 l -0.0052,45.333417 c -0.09409,-0.018 -0.181589,-0.0354 -0.278247,-0.0536 -15.934338,-2.95094 -14.663043,-24.44205 -14.663043,-24.44205 -1.238922,0.47582 -9.713762,12.41734 -3.496347,21.73522 3.215354,4.81892 12.470913,6.3459 18.529034,6.23623 l 0.241287,20.29577 c -4.358402,-1.84873 -12.11149,-5.15526 -12.56546,-5.48906 -0.630406,-0.46349 -0.113061,-3.20388 -0.113061,-3.20388 l 6.67764,0.025 c 0,0 0.165722,-1.53407 -0.224244,-2.43057 -0.39011,-0.89652 -1.113869,-1.16454 -5.541368,-4.00292 -4.427361,-2.83841 -12.181533,-3.36774 -12.181533,-3.36774 0,0 -0.675026,0.90341 1.982885,1.45412 2.657865,0.55071 3.577286,1.40473 3.785624,2.43704 0.208359,1.03234 -3.821663,2.25492 -7.871696,4.62888 -4.049985,2.37399 -2.936417,4.30133 -2.896022,8.05415 0.04038,3.75282 -1.077793,4.0879 -1.8835,7.96652 -0.805731,3.87866 1.984497,3.15817 2.541285,3.32486 0.556834,0.16668 0.624893,0.43999 -0.490341,4.58421 -1.115233,4.14425 -0.30826,4.12364 0.21313,3.85665 0.521414,-0.26696 2.338431,-0.3352 2.910149,-0.37372 0.571832,-0.0385 0.151002,-2.04931 1.062804,-1.88586 0.91185,0.16343 0.520874,0.15932 1.148593,4.67169 0.627721,4.51235 1.475964,4.58812 2.19207,-1.17356 0.716059,-5.76166 1.715667,-6.37964 4.452105,-9.7541 2.736555,-3.37445 3.990337,-0.4556 4.868099,0.73628 0.877925,1.19186 0.484471,7.97214 1.037031,8.30865 0.552581,0.33651 3.242638,-3.57046 3.589967,-6.2421 0.347305,-2.67164 -1.580937,-5.89475 -1.580937,-5.89475 0,0 0.426905,-0.38044 0.88804,-0.61088 0.302184,-0.15101 4.909459,1.58953 8.09933,2.82524 l 0.573258,48.18882 3.086434,16.31814 3.086547,-16.31815 0.92072,-48.10793 c 3.19224,-1.23844 8.00066,-3.06036 8.30899,-2.90622 0.4612,0.23044 0.88869,0.61108 0.88869,0.61108 0,0 -1.92935,3.22345 -1.58205,5.89509 0.34738,2.67164 3.03883,6.57809 3.59144,6.24158 0.55262,-0.33651 0.15782,-7.11666 1.03571,-8.30852 0.8778,-1.19188 2.13186,-4.11025 4.8683,-0.73579 2.73653,3.37446 3.73595,3.99165 4.45216,9.75331 0.71609,5.76168 1.5645,5.68626 2.19221,1.1739 0.62764,-4.51236 0.23654,-4.5081 1.14831,-4.67159 0.9118,-0.16345 0.4921,1.84718 1.06381,1.88579 0.57178,0.0385 2.38824,0.10695 2.90961,0.37395 0.5213,0.26699 1.32785,0.28732 0.2126,-3.85692 -1.11531,-4.14422 -1.0469,-4.41738 -0.49016,-4.58412 0.55685,-0.16669 3.34793,0.55359 2.54212,-3.32506 -0.80564,-3.87863 -1.92453,-4.21333 -1.88415,-7.96615 0.0404,-3.75282 1.1535,-5.68015 -2.89647,-8.05414 -4.05007,-2.37397 -8.07959,-3.5969 -7.87139,-4.62925 0.20836,-1.03231 1.1277,-1.88611 3.78559,-2.43682 2.65788,-0.55071 1.98298,-1.4541 1.98298,-1.4541 0,0 -7.75427,0.52892 -12.18177,3.36733 -4.42747,2.83837 -5.15137,3.10614 -5.54138,4.00265 -0.38999,0.8965 -0.22411,2.43132 -0.22411,2.43132 l 6.67809,-0.0255 c 0,0 0.5166,2.74041 -0.11377,3.2039 -0.4583,0.33704 -8.38155,3.7159 -12.71371,5.55316 l 0.38987,-20.36011 c 6.05806,0.10957 15.31344,-1.4172 18.52879,-6.23611 6.21738,-9.31788 -2.25725,-21.25923 -3.49615,-21.73505 0,0 1.27111,21.49128 -14.66326,24.44222 -0.0964,0.018 -0.18388,0.0359 -0.27786,0.0541 l 0.59252,-45.333613 c 0,0 1.82333,-0.858452 1.61708,-4.725378 -0.20617,-3.866876 -3.2733,-7.895086 -4.27501,-9.624714 -1.030494,-1.779548 -1.914721,-5.816803 -2.006966,-6.241047 z"
         inkscape:label="sword"
         transform="matrix(0.7768654,-0.0067796,0.0067796,0.7768654,21.06108,32.947947)" /></g><g
       id="g2507"
       style="display:inline;stroke:#000000;stroke-width:6.4358763;stroke-linecap:round;stroke-linejoin:round;stroke-dasharray:none;stroke-opacity:1;paint-order:stroke fill markers"
       transform="matrix(0.7768654,-0.0067796,0.0067796,0.7768654,21.06108,32.947947)"
       inkscape:label="foreground-outlined"><path
         id="path2501"
         style="display:inline;fill:#16c0c0;fill-opacity:1;fill-rule:nonzero;stroke:#000000;stroke-width:6.4358763;stroke-linecap:round;stroke-linejoin:round;stroke-dasharray:none;stroke-opacity:1;paint-order:stroke fill markers"
         inkscape:label="cut-gear"
         d="m 110.35673,77.000004 c -0.21696,0.285131 -0.39632,0.549677 -0.58921,0.821691 0.0299,0.267339 0.0613,0.534148 0.0761,0.810867 0.14235,2.675938 -0.43796,4.909192 -1.4123,6.490588 -0.0688,0.111659 -0.14885,0.155001 -0.22045,0.259497 l -0.12578,9.61092 a 50.226986,50.380337 89.85 0 1 41.06784,49.212723 50.226986,50.380337 89.85 0 1 -42.78049,49.77679 l -0.21989,11.47662 c 0.35401,1.17119 1.24868,3.41866 3.4196,6.34384 0.9363,-0.14892 1.86894,-0.31745 2.79821,-0.50507 1.35586,-4.71156 0.97857,-7.47437 0.88645,-7.97456 1.23804,-0.30223 2.46614,-0.64263 3.68276,-1.02153 0.17801,0.47668 1.28339,3.03707 4.88343,6.37391 0.8929,-0.31789 1.77873,-0.65454 2.6576,-1.00918 0.46439,-4.87974 -0.41597,-7.52539 -0.5987,-8.00016 1.16125,-0.52388 2.30569,-1.08424 3.43174,-1.6796 0.26287,0.43595 1.82133,2.75048 5.97511,5.37102 0.8191,-0.47605 1.62834,-0.96921 2.42689,-1.47883 -0.4429,-4.88169 -1.7958,-7.32164 -2.06294,-7.75484 1.04489,-0.72771 2.06662,-1.48799 3.06381,-2.27949 0.33874,0.38037 2.29679,2.36977 6.86285,4.18475 0.71741,-0.618 1.42158,-1.25075 2.11258,-1.89798 -1.3351,-4.71743 -3.11453,-6.86792 -3.45697,-7.24484 0.89301,-0.90672 1.75713,-1.84111 2.59143,-2.80179 0.4031,0.31183 2.69487,1.9085 7.51768,2.85609 0.59131,-0.7389 1.16724,-1.48979 1.7272,-2.25257 -2.18184,-4.39253 -4.328,-6.1806 -4.73408,-6.48835 0.71071,-1.05487 1.38802,-2.13127 2.03106,-3.22841 0.45369,0.23268 3.00122,1.38214 7.91661,1.43007 0.44504,-0.83463 0.87212,-1.6788 1.28196,-2.53118 -2.9543,-3.918 -5.39295,-5.28211 -5.84884,-5.51026 0.50417,-1.16708 0.97133,-2.34894 1.40124,-3.54522 0.48885,0.14563 3.20467,0.8084 8.04522,-0.0449 0.28362,-0.90196 0.54833,-1.80876 0.79404,-2.72169 -3.62611,-3.31009 -6.27484,-4.2048 -6.76499,-4.34553 0.28047,-1.23959 0.52174,-2.48804 0.72379,-3.7427 0.50738,0.0537 3.29892,0.20862 7.89975,-1.51688 0.11257,-0.93855 0.20539,-1.87956 0.27873,-2.82197 -4.17447,-2.58946 -6.94321,-2.98253 -7.45096,-3.03111 0.0473,-1.26982 0.0551,-2.54105 0.0226,-3.81135 0.50861,-0.0401 3.28124,-0.39976 7.48577,-2.93868 -0.0623,-0.94321 -0.14442,-1.88477 -0.24608,-2.82456 -4.58069,-1.78062 -7.37502,-1.66059 -7.88306,-1.61536 -0.18762,-1.25687 -0.41418,-2.5076 -0.68035,-3.7503 0.49252,-0.13277 3.15184,-0.99366 6.8168,-4.2596 -0.23509,-0.91572 -0.48995,-1.8261 -0.76308,-2.73128 -4.83085,-0.91118 -7.5552,-0.28166 -8.04624,-0.14406 -0.41609,-1.20111 -0.86916,-2.38856 -1.35983,-3.56133 0.45966,-0.22073 2.91513,-1.5545 5.91576,-5.4362 -0.39985,-0.85705 -0.81831,-1.70626 -1.25362,-2.54599 -4.91658,-0.0107 -7.47803,1.10775 -7.93539,1.33297 -0.63034,-1.10441 -1.29532,-2.18865 -1.99381,-3.25156 0.41116,-0.30117 2.57877,-2.06169 4.81287,-6.42698 -0.55103,-0.7692 -1.11768,-1.52682 -1.70035,-2.2725 -4.83485,0.89018 -7.14737,2.45863 -7.55542,2.76379 -0.8232,-0.97012 -1.6764,-1.91461 -2.5589,-2.83144 0.34865,-0.37139 2.15492,-2.498826 3.54644,-7.199016 -0.68343,-0.655163 -1.38105,-1.296455 -2.09122,-1.922694 -4.58847,1.760712 -6.57168,3.726354 -6.91653,4.101079 -0.98799,-0.802823 -2.00121,-1.57453 -3.03769,-2.314103 0.27428,-0.428912 1.65794,-2.850901 2.15945,-7.72598 -0.79253,-0.5188 -1.59596,-1.021593 -2.40947,-1.507066 -4.18584,2.571287 -5.77367,4.866555 -6.0436,5.29806 -1.1191,-0.608155 -2.25691,-1.181588 -3.41207,-1.718698 0.19057,-0.471853 1.10386,-3.105583 0.69833,-7.989509 -0.87468,-0.36478 -1.75657,-0.711325 -2.64571,-1.039501 -3.64068,3.294301 -4.77844,5.840974 -4.96422,6.314579 -1.21219,-0.392783 -2.4361,-0.747393 -3.67056,-1.063745 0.10033,-0.498727 0.51234,-3.256043 -0.78644,-7.98251 -0.92701,-0.198334 -1.85794,-0.377524 -2.79244,-0.537232 z M 87.973492,76.871187 c -0.936299,0.148917 -1.868955,0.317449 -2.798213,0.505073 -1.355864,4.71158 -0.978549,7.474393 -0.886448,7.974563 -1.23802,0.302239 -2.466149,0.64327 -3.682774,1.02219 -0.178045,-0.476684 -1.283397,-3.037073 -4.883423,-6.37391 -0.892911,0.317897 -1.77875,0.653855 -2.657594,1.008519 -0.46439,4.87972 0.415962,7.526044 0.598695,8.000828 -1.161223,0.523883 -2.305679,1.083588 -3.43174,1.678929 -0.262866,-0.435953 -1.821367,-2.749829 -5.975114,-5.370351 -0.819111,0.476057 -1.628351,0.969202 -2.426885,1.478828 0.442912,4.881693 1.795798,7.321617 2.062933,7.754846 -1.04492,0.727688 -2.066641,1.487322 -3.063804,2.278817 -0.338745,-0.380378 -2.296825,-2.369767 -6.862847,-4.184744 -0.717433,0.618007 -1.421585,1.251414 -2.112588,1.898646 1.335081,4.717428 3.11454,6.867939 3.456969,7.244839 -0.893009,0.90672 -1.757105,1.84046 -2.591419,2.80112 -0.403099,-0.3118 -2.694873,-1.90848 -7.517683,-2.85608 -0.591327,0.73893 -1.167257,1.49044 -1.727211,2.25323 2.181857,4.3925 4.328036,6.17993 4.734093,6.48768 -0.710682,1.05486 -1.388022,2.13195 -2.031072,3.22908 -0.453684,-0.23271 -3.001212,-1.38281 -7.916598,-1.43074 -0.445048,0.83466 -0.872143,1.67882 -1.281962,2.53118 2.95427,3.91803 5.392974,5.28146 5.848842,5.5096 -0.504156,1.16709 -0.971371,2.35026 -1.401245,3.54655 -0.488852,-0.14553 -3.204663,-0.80898 -8.045212,0.0442 -0.283638,0.90194 -0.548291,1.80941 -0.79405,2.72235 3.626121,3.3101 6.274826,4.20415 6.764997,4.34487 -0.280487,1.23956 -0.521709,2.48804 -0.723796,3.7427 -0.507372,-0.0536 -3.298884,-0.20861 -7.899749,1.51688 -0.112564,0.93856 -0.205426,1.87956 -0.27873,2.82197 4.174485,2.58944 6.943203,2.9832 7.450961,3.03178 -0.04728,1.26984 -0.05456,2.54041 -0.02195,3.81069 -0.508624,0.0401 -3.281946,0.39973 -7.486435,2.93867 0.06232,0.94319 0.144434,1.88477 0.246084,2.82456 4.580675,1.78063 7.374982,1.66058 7.883057,1.61536 0.187607,1.25688 0.414163,2.50761 0.680357,3.7503 -0.49254,0.13277 -3.151832,0.99433 -6.816811,4.26027 0.235102,0.9157 0.489956,1.82546 0.763092,2.73062 4.830588,0.91007 7.554159,0.27944 8.044929,0.14071 l 0.0013,0.003 c 0.416082,1.2011 0.869134,2.38854 1.359837,3.56133 -0.459672,0.22074 -2.914473,1.5545 -5.915096,5.43621 0.399877,0.85706 0.817661,1.7056 1.252959,2.54532 4.916597,0.0107 7.478051,-1.10775 7.935395,-1.33298 0.630384,1.10444 1.295308,2.1893 1.993801,3.25223 -0.411167,0.30117 -2.578734,2.06171 -4.812873,6.42699 0.551047,0.7692 1.117686,1.52683 1.700354,2.27249 4.834843,-0.89015 7.14737,-2.45862 7.555419,-2.76378 0.823179,0.97013 1.67637,1.91456 2.558894,2.83143 -0.348671,0.37136 -2.154245,2.49884 -3.545768,7.19902 0.683431,0.65516 1.380369,1.29647 2.090548,1.92269 4.588456,-1.76071 6.572344,-3.72635 6.917196,-4.10107 0.987994,0.80282 2.000551,1.57454 3.037026,2.3141 -0.274294,0.4289 -1.657901,2.85089 -2.159451,7.72598 0.792557,0.51878 1.595955,1.02158 2.409476,1.50706 4.185832,-2.5713 5.773686,-4.86655 6.043603,-5.29806 1.119142,0.60815 2.25695,1.18092 3.412074,1.71804 -0.190537,0.47184 -1.103873,3.10624 -0.698336,7.99017 0.874677,0.36476 1.756549,0.71131 2.645708,1.0395 3.640655,-3.29431 4.778432,-5.84097 4.964221,-6.31458 1.212175,0.39279 2.436743,0.74807 3.671216,1.06442 -0.100352,0.49875 -0.513019,3.25539 0.78578,7.98184 0.927023,0.19833 1.857952,0.37752 2.792442,0.53723 2.053022,-2.69806 2.984675,-4.80467 3.403837,-6.02753 L 90.452656,193.87475 A 50.226986,50.380337 89.85 0 1 48.392698,144.46977 50.226986,50.380337 89.85 0 1 89.634108,94.978225 l 8.61e-4,-9.626645 c -0.06343,-0.09369 -0.136335,-0.13119 -0.197545,-0.23055 -0.974469,-1.581765 -1.554838,-3.813097 -1.412106,-6.489959 0.02678,-0.502038 0.08778,-0.982633 0.162357,-1.454022 -0.07554,-0.104469 -0.135319,-0.199597 -0.214183,-0.305862 z" /><path
         id="path2505"
         style="display:inline;fill:url(#linearGradient4038);fill-opacity:1;fill-rule:nonzero;stroke:#000000;stroke-width:6.4358763;stroke-linecap:round;stroke-linejoin:round;stroke-dasharray:none;stroke-opacity:1;paint-order:stroke fill markers;image-rendering:auto"
         d="m 98.934218,63.012772 c -0.09213,0.424244 -0.975622,4.461732 -2.006139,6.241281 -1.001707,1.729628 -4.069744,5.75705 -4.276024,9.623926 -0.206186,3.866926 1.617082,4.725664 1.617082,4.725664 l -0.0052,45.333417 c -0.09409,-0.018 -0.181589,-0.0354 -0.278247,-0.0536 -15.934338,-2.95094 -14.663043,-24.44205 -14.663043,-24.44205 -1.238922,0.47582 -9.713762,12.41734 -3.496347,21.73522 3.215354,4.81892 12.470913,6.3459 18.529034,6.23623 l 0.241287,20.29577 c -4.358402,-1.84873 -12.11149,-5.15526 -12.56546,-5.48906 -0.630406,-0.46349 -0.113061,-3.20388 -0.113061,-3.20388 l 6.67764,0.025 c 0,0 0.165722,-1.53407 -0.224244,-2.43057 -0.39011,-0.89652 -1.113869,-1.16454 -5.541368,-4.00292 -4.427361,-2.83841 -12.181533,-3.36774 -12.181533,-3.36774 0,0 -0.675026,0.90341 1.982885,1.45412 2.657865,0.55071 3.577286,1.40473 3.785624,2.43704 0.208359,1.03234 -3.821663,2.25492 -7.871696,4.62888 -4.049985,2.37399 -2.936417,4.30133 -2.896022,8.05415 0.04038,3.75282 -1.077793,4.0879 -1.8835,7.96652 -0.805731,3.87866 1.984497,3.15817 2.541285,3.32486 0.556834,0.16668 0.624893,0.43999 -0.490341,4.58421 -1.115233,4.14425 -0.30826,4.12364 0.21313,3.85665 0.521414,-0.26696 2.338431,-0.3352 2.910149,-0.37372 0.571832,-0.0385 0.151002,-2.04931 1.062804,-1.88586 0.91185,0.16343 0.520874,0.15932 1.148593,4.67169 0.627721,4.51235 1.475964,4.58812 2.19207,-1.17356 0.716059,-5.76166 1.715667,-6.37964 4.452105,-9.7541 2.736555,-3.37445 3.990337,-0.4556 4.868099,0.73628 0.877925,1.19186 0.484471,7.97214 1.037031,8.30865 0.552581,0.33651 3.242638,-3.57046 3.589967,-6.2421 0.347305,-2.67164 -1.580937,-5.89475 -1.580937,-5.89475 0,0 0.426905,-0.38044 0.88804,-0.61088 0.302184,-0.15101 4.909459,1.58953 8.09933,2.82524 l 0.573258,48.18882 3.086434,16.31814 3.086547,-16.31815 0.92072,-48.10793 c 3.19224,-1.23844 8.00066,-3.06036 8.30899,-2.90622 0.4612,0.23044 0.88869,0.61108 0.88869,0.61108 0,0 -1.92935,3.22345 -1.58205,5.89509 0.34738,2.67164 3.03883,6.57809 3.59144,6.24158 0.55262,-0.33651 0.15782,-7.11666 1.03571,-8.30852 0.8778,-1.19188 2.13186,-4.11025 4.8683,-0.73579 2.73653,3.37446 3.73595,3.99165 4.45216,9.75331 0.71609,5.76168 1.5645,5.68626 2.19221,1.1739 0.62764,-4.51236 0.23654,-4.5081 1.14831,-4.67159 0.9118,-0.16345 0.4921,1.84718 1.06381,1.88579 0.57178,0.0385 2.38824,0.10695 2.90961,0.37395 0.5213,0.26699 1.32785,0.28732 0.2126,-3.85692 -1.11531,-4.14422 -1.0469,-4.41738 -0.49016,-4.58412 0.55685,-0.16669 3.34793,0.55359 2.54212,-3.32506 -0.80564,-3.87863 -1.92453,-4.21333 -1.88415,-7.96615 0.0404,-3.75282 1.1535,-5.68015 -2.89647,-8.05414 -4.05007,-2.37397 -8.07959,-3.5969 -7.87139,-4.62925 0.20836,-1.03231 1.1277,-1.88611 3.78559,-2.43682 2.65788,-0.55071 1.98298,-1.4541 1.98298,-1.4541 0,0 -7.75427,0.52892 -12.18177,3.36733 -4.42747,2.83837 -5.15137,3.10614 -5.54138,4.00265 -0.38999,0.8965 -0.22411,2.43132 -0.22411,2.43132 l 6.67809,-0.0255 c 0,0 0.5166,2.74041 -0.11377,3.2039 -0.4583,0.33704 -8.38155,3.7159 -12.71371,5.55316 l 0.38987,-20.36011 c 6.05806,0.10957 15.31344,-1.4172 18.52879,-6.23611 6.21738,-9.31788 -2.25725,-21.25923 -3.49615,-21.73505 0,0 1.27111,21.49128 -14.66326,24.44222 -0.0964,0.018 -0.18388,0.0359 -0.27786,0.0541 l 0.59252,-45.333613 c 0,0 1.82333,-0.858452 1.61708,-4.725378 -0.20617,-3.866876 -3.2733,-7.895086 -4.27501,-9.624714 -1.030494,-1.779548 -1.914721,-5.816803 -2.006966,-6.241047 z"
         inkscape:label="sword" /></g><g
       id="g10994"
       style="display:none;stroke-width:1.28718"
       transform="matrix(0.7768654,-0.0067796,0.0067796,0.7768654,21.06108,32.947947)"
       inkscape:label="foreground"><path
         id="rect7407"
         style="display:none;fill:#16c0c0;fill-opacity:1;fill-rule:nonzero;stroke-width:0.773831;stroke-linecap:round;stroke-linejoin:round;stroke-dasharray:none"
         d="m 99.170117,76.018905 c -0.474033,-0.0028 -0.948106,-8.72e-4 -1.422124,0.0062 -2.201163,4.38299 -2.338822,7.167952 -2.340491,7.676487 -1.272668,0.07029 -2.542982,0.180253 -3.808735,0.329851 -0.08716,-0.501185 -0.701558,-3.220597 -3.625256,-7.160124 -0.9363,0.148917 -1.869257,0.317348 -2.798516,0.504973 -1.355866,4.711584 -0.978149,7.474299 -0.886048,7.97447 -1.238021,0.302239 -2.466274,0.643066 -3.6829,1.021986 -0.178046,-0.476685 -1.283561,-3.037084 -4.88359,-6.373925 -0.892912,0.317898 -1.778825,0.654301 -2.65767,1.008966 -0.464391,4.879725 0.415956,7.525772 0.59869,8.000556 -1.161225,0.523884 -2.30552,1.08383 -3.431583,1.679171 -0.262866,-0.435953 -1.821206,-2.750086 -5.974957,-5.370611 -0.819112,0.476058 -1.628461,0.968996 -2.426996,1.478622 0.442913,4.881698 1.795943,7.321643 2.063078,7.754873 -1.044921,0.727689 -2.06646,1.487714 -3.063624,2.27921 -0.338745,-0.380378 -2.297247,-2.369912 -6.863274,-4.184891 -0.717433,0.618008 -1.421733,1.251213 -2.112737,1.898445 1.335083,4.717433 3.1151,6.867906 3.457529,7.244806 -0.89301,0.90672 -1.757684,1.84078 -2.591999,2.80144 -0.403099,-0.3118 -2.694824,-1.9085 -7.517639,-2.85611 -0.591327,0.73893 -1.166865,1.49018 -1.726819,2.25297 2.181859,4.39251 4.32797,6.18026 4.734027,6.48801 -0.710683,1.05486 -1.388173,2.13177 -2.031223,3.2289 -0.453685,-0.23271 -3.001078,-1.38242 -7.916468,-1.43035 -0.445049,0.83466 -0.87237,1.67849 -1.282189,2.53085 2.954273,3.91804 5.393363,5.28182 5.849232,5.50996 -0.504157,1.16709 -0.971614,2.34982 -1.401488,3.54611 -0.488853,-0.14553 -3.204344,-0.80898 -8.044898,0.0442 -0.283638,0.90194 -0.548618,1.80939 -0.794377,2.72233 3.626125,3.3101 6.27482,4.20463 6.764992,4.34535 -0.280488,1.23956 -0.521925,2.48758 -0.724012,3.74224 -0.507373,-0.0536 -3.298579,-0.20825 -7.899448,1.51724 -0.112564,0.93856 -0.205598,1.87935 -0.278902,2.82176 4.174489,2.58944 6.943162,2.9829 7.45092,3.03148 -0.04728,1.26984 -0.05466,2.54092 -0.02205,3.8112 -0.508624,0.0401 -3.281439,0.39936 -7.485932,2.9383 0.06232,0.94319 0.14449,1.88524 0.24614,2.82503 4.58068,1.78063 7.37477,1.66015 7.882846,1.61493 0.187607,1.25688 0.414385,2.50777 0.68058,3.75046 -0.492541,0.13277 -3.151895,0.99404 -6.816878,4.25998 0.235102,0.9157 0.489526,1.82601 0.762662,2.73117 4.830593,0.91007 7.554095,0.27942 8.044866,0.14069 l 0.0016,0.003 c 0.416082,1.2011 0.869448,2.38883 1.360151,3.56162 -0.459672,0.22074 -2.915035,1.55413 -5.915661,5.43584 0.399878,0.85706 0.817806,1.70569 1.253105,2.54541 4.916601,0.0107 7.478242,-1.10761 7.935587,-1.33284 0.630384,1.10444 1.295435,2.18903 1.993929,3.25196 -0.411167,0.30117 -2.578728,2.06194 -4.812869,6.42722 0.551047,0.7692 1.117757,1.52674 1.700426,2.27241 4.834848,-0.89016 7.14707,-2.45864 7.555119,-2.76381 0.82318,0.97014 1.676679,1.91451 2.559204,2.83138 -0.348671,0.37136 -2.154799,2.49886 -3.546323,7.19905 0.683432,0.65516 1.380522,1.29636 2.090702,1.92258 4.588461,-1.76071 6.572176,-3.72635 6.917029,-4.10107 0.987995,0.80282 2.000934,1.57483 3.03741,2.31439 -0.274294,0.4289 -1.657943,2.85105 -2.159493,7.72614 0.792558,0.51878 1.595968,1.0213 2.40949,1.50678 4.185836,-2.5713 5.773745,-4.86669 6.043662,-5.2982 1.119143,0.60815 2.256929,1.18098 3.412054,1.7181 -0.190537,0.47185 -1.103958,3.10659 -0.69842,7.99052 0.874677,0.36476 1.75682,0.71133 2.64598,1.03952 3.640658,-3.29431 4.77827,-5.84135 4.964059,-6.31496 1.212176,0.39279 2.436318,0.74787 3.670792,1.06422 -0.100352,0.49875 -0.512574,3.25553 0.786226,7.98198 0.927024,0.19833 1.857971,0.37765 2.792462,0.53736 2.971499,-3.90511 3.620694,-6.61723 3.716036,-7.11681 1.263937,0.16403 2.53261,0.288 3.804376,0.37297 -0.0068,0.50861 0.09598,3.29467 2.24381,7.70272 0.947811,0.0245 1.896286,0.0303 2.844323,0.0163 2.201168,-4.38297 2.338818,-7.16795 2.340488,-7.67648 1.27264,-0.0703 2.54299,-0.18026 3.80874,-0.32986 0.087,0.50121 0.70156,3.2206 3.62526,7.16012 0.93631,-0.14892 1.86924,-0.31735 2.79851,-0.50497 1.35586,-4.71157 0.97816,-7.47428 0.88604,-7.97447 1.23805,-0.30223 2.46629,-0.64308 3.68291,-1.02198 0.17801,0.47668 1.28355,3.03708 4.88359,6.37393 0.8929,-0.3179 1.7788,-0.65433 2.65767,-1.00897 0.46439,-4.87974 -0.41597,-7.52579 -0.5987,-8.00056 1.16126,-0.52388 2.30554,-1.08381 3.43159,-1.67917 0.26287,0.43595 1.82118,2.75007 5.97496,5.37061 0.8191,-0.47605 1.62845,-0.969 2.427,-1.47862 -0.4429,-4.8817 -1.79595,-7.32166 -2.06309,-7.75487 1.04489,-0.72771 2.06643,-1.48771 3.06362,-2.27921 0.33874,0.38037 2.29723,2.3694 6.86329,4.18438 0.71741,-0.618 1.42173,-1.25071 2.11273,-1.89794 -1.3351,-4.71743 -3.11509,-6.86787 -3.45753,-7.24479 0.89301,-0.90672 1.75769,-1.8413 2.59199,-2.80198 0.4031,0.31183 2.69484,1.90906 7.51765,2.85665 0.59131,-0.7389 1.16686,-1.49019 1.72683,-2.25297 -2.18185,-4.39254 -4.32796,-6.18026 -4.73404,-6.48801 0.71071,-1.05487 1.38817,-2.13177 2.03121,-3.22891 0.45369,0.23268 3.0011,1.38242 7.91649,1.43035 0.44504,-0.83463 0.87234,-1.67848 1.28218,-2.53086 -2.9543,-3.91801 -5.39334,-5.28231 -5.84923,-5.51046 0.50417,-1.16708 0.97158,-2.34931 1.40149,-3.54559 0.48885,0.14563 3.20436,0.80897 8.04491,-0.0443 0.28362,-0.90196 0.54865,-1.80939 0.79436,-2.72232 -3.62611,-3.3101 -6.27484,-4.20462 -6.76499,-4.34535 0.28047,-1.23959 0.52196,-2.4876 0.72401,-3.74226 0.50738,0.0537 3.2986,0.20828 7.89944,-1.51722 0.11257,-0.93855 0.20557,-1.87935 0.27891,-2.82176 -4.17448,-2.58946 -6.94317,-2.98291 -7.45092,-3.03149 0.0473,-1.26982 0.0546,-2.54089 0.0221,-3.81119 0.50861,-0.0401 3.2814,-0.39939 7.48594,-2.93831 -0.0623,-0.94321 -0.14448,-1.88524 -0.24614,-2.82503 -4.58069,-1.78063 -7.3748,-1.66016 -7.88284,-1.61493 -0.18762,-1.25687 -0.41442,-2.50775 -0.68059,-3.75045 0.49252,-0.13277 3.15193,-0.99404 6.81689,-4.25998 -0.23509,-0.91572 -0.48954,-1.826 -0.76268,-2.73119 -4.83085,-0.91118 -7.55537,-0.28137 -8.04641,-0.14377 -0.41609,-1.20111 -0.86949,-2.38884 -1.36016,-3.56161 0.45966,-0.22073 2.91502,-1.55466 5.91565,-5.43637 -0.39985,-0.85705 -0.81779,-1.70568 -1.2531,-2.54541 -4.91659,-0.0107 -7.47822,1.10762 -7.93559,1.33284 -0.63034,-1.10442 -1.29544,-2.18852 -1.99393,-3.25143 0.41116,-0.30117 2.57878,-2.06192 4.81288,-6.42722 -0.55103,-0.7692 -1.11775,-1.52674 -1.70042,-2.27242 -4.83485,0.89018 -7.14708,2.45865 -7.55513,2.76381 -0.8232,-0.97012 -1.6767,-1.91454 -2.5592,-2.83137 0.34865,-0.37139 2.15481,-2.498874 3.54633,-7.199069 -0.68343,-0.655163 -1.38054,-1.296343 -2.09071,-1.922582 -4.58848,1.760713 -6.57217,3.726352 -6.91702,4.101078 -0.98799,-0.802824 -2.00094,-1.57482 -3.03742,-2.314394 0.27428,-0.428912 1.65798,-2.851056 2.15949,-7.72614 -0.79253,-0.5188 -1.59597,-1.02131 -2.40948,-1.506783 -4.18584,2.571289 -5.77373,4.8667 -6.04367,5.298205 -1.1191,-0.608155 -2.25689,-1.181504 -3.41205,-1.718615 0.19057,-0.471853 1.10396,-3.106068 0.69843,-7.989999 -0.87468,-0.36478 -1.75685,-0.711346 -2.64599,-1.039523 -3.64068,3.294305 -4.77828,5.841352 -4.96406,6.314957 -1.21219,-0.392783 -2.43633,-0.747878 -3.67079,-1.06423 0.10033,-0.498728 0.51254,-3.255506 -0.78624,-7.981978 -0.92701,-0.198334 -1.85795,-0.377652 -2.79245,-0.53736 -2.97151,3.905139 -3.62074,6.617238 -3.71604,7.116812 -1.26394,-0.164036 -2.53259,-0.28866 -3.80437,-0.37348 0.008,-0.508617 -0.0961,-3.294156 -2.24382,-7.702209 -0.47388,-0.01259 -0.948158,-0.0199 -1.422191,-0.02263 z M 98.641288,94.11072 A 50.226986,50.380337 89.85 0 1 149.15299,144.20607 50.226986,50.380337 89.85 0 1 98.904277,194.5647 50.226986,50.380337 89.85 0 1 48.392568,144.46989 50.226986,50.380337 89.85 0 1 98.641288,94.11072 Z"
         inkscape:label="full-gear" /><path
         id="path5126"
         style="display:inline;fill:#16c0c0;fill-opacity:1;fill-rule:nonzero;stroke-width:0.773831;stroke-linecap:round;stroke-linejoin:round;stroke-dasharray:none"
         inkscape:label="cut-gear"
         d="m 110.35673,77.000004 c -0.21696,0.285131 -0.39632,0.549677 -0.58921,0.821691 0.0299,0.267339 0.0613,0.534148 0.0761,0.810867 0.14235,2.675938 -0.43796,4.909192 -1.4123,6.490588 -0.0688,0.111659 -0.14885,0.155001 -0.22045,0.259497 l -0.12578,9.61092 a 50.226986,50.380337 89.85 0 1 41.06784,49.212723 50.226986,50.380337 89.85 0 1 -42.78049,49.77679 l -0.21989,11.47662 c 0.35401,1.17119 1.24868,3.41866 3.4196,6.34384 0.9363,-0.14892 1.86894,-0.31745 2.79821,-0.50507 1.35586,-4.71156 0.97857,-7.47437 0.88645,-7.97456 1.23804,-0.30223 2.46614,-0.64263 3.68276,-1.02153 0.17801,0.47668 1.28339,3.03707 4.88343,6.37391 0.8929,-0.31789 1.77873,-0.65454 2.6576,-1.00918 0.46439,-4.87974 -0.41597,-7.52539 -0.5987,-8.00016 1.16125,-0.52388 2.30569,-1.08424 3.43174,-1.6796 0.26287,0.43595 1.82133,2.75048 5.97511,5.37102 0.8191,-0.47605 1.62834,-0.96921 2.42689,-1.47883 -0.4429,-4.88169 -1.7958,-7.32164 -2.06294,-7.75484 1.04489,-0.72771 2.06662,-1.48799 3.06381,-2.27949 0.33874,0.38037 2.29679,2.36977 6.86285,4.18475 0.71741,-0.618 1.42158,-1.25075 2.11258,-1.89798 -1.3351,-4.71743 -3.11453,-6.86792 -3.45697,-7.24484 0.89301,-0.90672 1.75713,-1.84111 2.59143,-2.80179 0.4031,0.31183 2.69487,1.9085 7.51768,2.85609 0.59131,-0.7389 1.16724,-1.48979 1.7272,-2.25257 -2.18184,-4.39253 -4.328,-6.1806 -4.73408,-6.48835 0.71071,-1.05487 1.38802,-2.13127 2.03106,-3.22841 0.45369,0.23268 3.00122,1.38214 7.91661,1.43007 0.44504,-0.83463 0.87212,-1.6788 1.28196,-2.53118 -2.9543,-3.918 -5.39295,-5.28211 -5.84884,-5.51026 0.50417,-1.16708 0.97133,-2.34894 1.40124,-3.54522 0.48885,0.14563 3.20467,0.8084 8.04522,-0.0449 0.28362,-0.90196 0.54833,-1.80876 0.79404,-2.72169 -3.62611,-3.31009 -6.27484,-4.2048 -6.76499,-4.34553 0.28047,-1.23959 0.52174,-2.48804 0.72379,-3.7427 0.50738,0.0537 3.29892,0.20862 7.89975,-1.51688 0.11257,-0.93855 0.20539,-1.87956 0.27873,-2.82197 -4.17447,-2.58946 -6.94321,-2.98253 -7.45096,-3.03111 0.0473,-1.26982 0.0551,-2.54105 0.0226,-3.81135 0.50861,-0.0401 3.28124,-0.39976 7.48577,-2.93868 -0.0623,-0.94321 -0.14442,-1.88477 -0.24608,-2.82456 -4.58069,-1.78062 -7.37502,-1.66059 -7.88306,-1.61536 -0.18762,-1.25687 -0.41418,-2.5076 -0.68035,-3.7503 0.49252,-0.13277 3.15184,-0.99366 6.8168,-4.2596 -0.23509,-0.91572 -0.48995,-1.8261 -0.76308,-2.73128 -4.83085,-0.91118 -7.5552,-0.28166 -8.04624,-0.14406 -0.41609,-1.20111 -0.86916,-2.38856 -1.35983,-3.56133 0.45966,-0.22073 2.91513,-1.5545 5.91576,-5.4362 -0.39985,-0.85705 -0.81831,-1.70626 -1.25362,-2.54599 -4.91658,-0.0107 -7.47803,1.10775 -7.93539,1.33297 -0.63034,-1.10441 -1.29532,-2.18865 -1.99381,-3.25156 0.41116,-0.30117 2.57877,-2.06169 4.81287,-6.42698 -0.55103,-0.7692 -1.11768,-1.52682 -1.70035,-2.2725 -4.83485,0.89018 -7.14737,2.45863 -7.55542,2.76379 -0.8232,-0.97012 -1.6764,-1.91461 -2.5589,-2.83144 0.34865,-0.37139 2.15492,-2.498826 3.54644,-7.199016 -0.68343,-0.655163 -1.38105,-1.296455 -2.09122,-1.922694 -4.58847,1.760712 -6.57168,3.726354 -6.91653,4.101079 -0.98799,-0.802823 -2.00121,-1.57453 -3.03769,-2.314103 0.27428,-0.428912 1.65794,-2.850901 2.15945,-7.72598 -0.79253,-0.5188 -1.59596,-1.021593 -2.40947,-1.507066 -4.18584,2.571287 -5.77367,4.866555 -6.0436,5.29806 -1.1191,-0.608155 -2.25691,-1.181588 -3.41207,-1.718698 0.19057,-0.471853 1.10386,-3.105583 0.69833,-7.989509 -0.87468,-0.36478 -1.75657,-0.711325 -2.64571,-1.039501 -3.64068,3.294301 -4.77844,5.840974 -4.96422,6.314579 -1.21219,-0.392783 -2.4361,-0.747393 -3.67056,-1.063745 0.10033,-0.498727 0.51234,-3.256043 -0.78644,-7.98251 -0.92701,-0.198334 -1.85794,-0.377524 -2.79244,-0.537232 z M 87.973492,76.871187 c -0.936299,0.148917 -1.868955,0.317449 -2.798213,0.505073 -1.355864,4.71158 -0.978549,7.474393 -0.886448,7.974563 -1.23802,0.302239 -2.466149,0.64327 -3.682774,1.02219 -0.178045,-0.476684 -1.283397,-3.037073 -4.883423,-6.37391 -0.892911,0.317897 -1.77875,0.653855 -2.657594,1.008519 -0.46439,4.87972 0.415962,7.526044 0.598695,8.000828 -1.161223,0.523883 -2.305679,1.083588 -3.43174,1.678929 -0.262866,-0.435953 -1.821367,-2.749829 -5.975114,-5.370351 -0.819111,0.476057 -1.628351,0.969202 -2.426885,1.478828 0.442912,4.881693 1.795798,7.321617 2.062933,7.754846 -1.04492,0.727688 -2.066641,1.487322 -3.063804,2.278817 -0.338745,-0.380378 -2.296825,-2.369767 -6.862847,-4.184744 -0.717433,0.618007 -1.421585,1.251414 -2.112588,1.898646 1.335081,4.717428 3.11454,6.867939 3.456969,7.244839 -0.893009,0.90672 -1.757105,1.84046 -2.591419,2.80112 -0.403099,-0.3118 -2.694873,-1.90848 -7.517683,-2.85608 -0.591327,0.73893 -1.167257,1.49044 -1.727211,2.25323 2.181857,4.3925 4.328036,6.17993 4.734093,6.48768 -0.710682,1.05486 -1.388022,2.13195 -2.031072,3.22908 -0.453684,-0.23271 -3.001212,-1.38281 -7.916598,-1.43074 -0.445048,0.83466 -0.872143,1.67882 -1.281962,2.53118 2.95427,3.91803 5.392974,5.28146 5.848842,5.5096 -0.504156,1.16709 -0.971371,2.35026 -1.401245,3.54655 -0.488852,-0.14553 -3.204663,-0.80898 -8.045212,0.0442 -0.283638,0.90194 -0.548291,1.80941 -0.79405,2.72235 3.626121,3.3101 6.274826,4.20415 6.764997,4.34487 -0.280487,1.23956 -0.521709,2.48804 -0.723796,3.7427 -0.507372,-0.0536 -3.298884,-0.20861 -7.899749,1.51688 -0.112564,0.93856 -0.205426,1.87956 -0.27873,2.82197 4.174485,2.58944 6.943203,2.9832 7.450961,3.03178 -0.04728,1.26984 -0.05456,2.54041 -0.02195,3.81069 -0.508624,0.0401 -3.281946,0.39973 -7.486435,2.93867 0.06232,0.94319 0.144434,1.88477 0.246084,2.82456 4.580675,1.78063 7.374982,1.66058 7.883057,1.61536 0.187607,1.25688 0.414163,2.50761 0.680357,3.7503 -0.49254,0.13277 -3.151832,0.99433 -6.816811,4.26027 0.235102,0.9157 0.489956,1.82546 0.763092,2.73062 4.830588,0.91007 7.554159,0.27944 8.044929,0.14071 l 0.0013,0.003 c 0.416082,1.2011 0.869134,2.38854 1.359837,3.56133 -0.459672,0.22074 -2.914473,1.5545 -5.915096,5.43621 0.399877,0.85706 0.817661,1.7056 1.252959,2.54532 4.916597,0.0107 7.478051,-1.10775 7.935395,-1.33298 0.630384,1.10444 1.295308,2.1893 1.993801,3.25223 -0.411167,0.30117 -2.578734,2.06171 -4.812873,6.42699 0.551047,0.7692 1.117686,1.52683 1.700354,2.27249 4.834843,-0.89015 7.14737,-2.45862 7.555419,-2.76378 0.823179,0.97013 1.67637,1.91456 2.558894,2.83143 -0.348671,0.37136 -2.154245,2.49884 -3.545768,7.19902 0.683431,0.65516 1.380369,1.29647 2.090548,1.92269 4.588456,-1.76071 6.572344,-3.72635 6.917196,-4.10107 0.987994,0.80282 2.000551,1.57454 3.037026,2.3141 -0.274294,0.4289 -1.657901,2.85089 -2.159451,7.72598 0.792557,0.51878 1.595955,1.02158 2.409476,1.50706 4.185832,-2.5713 5.773686,-4.86655 6.043603,-5.29806 1.119142,0.60815 2.25695,1.18092 3.412074,1.71804 -0.190537,0.47184 -1.103873,3.10624 -0.698336,7.99017 0.874677,0.36476 1.756549,0.71131 2.645708,1.0395 3.640655,-3.29431 4.778432,-5.84097 4.964221,-6.31458 1.212175,0.39279 2.436743,0.74807 3.671216,1.06442 -0.100352,0.49875 -0.513019,3.25539 0.78578,7.98184 0.927023,0.19833 1.857952,0.37752 2.792442,0.53723 2.053022,-2.69806 2.984675,-4.80467 3.403837,-6.02753 L 90.452656,193.87475 A 50.226986,50.380337 89.85 0 1 48.392698,144.46977 50.226986,50.380337 89.85 0 1 89.634108,94.978225 l 8.61e-4,-9.626645 c -0.06343,-0.09369 -0.136335,-0.13119 -0.197545,-0.23055 -0.974469,-1.581765 -1.554838,-3.813097 -1.412106,-6.489959 0.02678,-0.502038 0.08778,-0.982633 0.162357,-1.454022 -0.07554,-0.104469 -0.135319,-0.199597 -0.214183,-0.305862 z" /><path
         id="path5117"
         style="color:#000000;display:none;fill:#000000;stroke-width:9.26766;-inkscape-stroke:none"
         d="m 95.289327,57.961107 -0.882954,4.067923 c -0.04112,0.189357 -0.264671,1.206975 -0.583859,2.342366 -0.319189,1.135391 -0.862936,2.488828 -0.904388,2.560412 -0.254331,0.439147 -1.428206,2.12917 -2.507949,4.136227 -1.079743,2.007057 -2.221181,4.494755 -2.384859,7.563036 -0.142732,2.676864 0.437636,4.908192 1.412106,6.489959 0.06121,0.09936 0.134112,0.136859 0.197545,0.23055 l -0.0044,36.4784 c -2.259786,-1.90213 -3.621379,-4.54326 -4.503805,-7.56993 -1.412438,-4.84462 -1.177239,-9.54513 -1.177239,-9.54513 l 0.423173,-7.17772 -6.710336,2.57826 c -1.178737,0.45271 -1.421881,0.80392 -1.754428,1.10354 -0.332548,0.29962 -0.58751,0.57704 -0.847122,0.87665 -0.519226,0.59923 -1.02739,1.28347 -1.558873,2.09572 -1.062967,1.62448 -2.197047,3.7383 -3.08981,6.24978 -1.785525,5.02294 -2.595085,12.0793 1.560422,18.30705 0.292329,0.43812 0.66453,0.75897 0.992441,1.14614 -0.603943,-0.0637 -2.000475,-0.27688 -2.000475,-0.27688 l -2.517577,-0.17231 -1.509667,2.02165 c 0,0 -1.652621,3.18484 -0.345694,5.54069 0.254881,0.45945 0.547015,0.79589 0.842288,1.12554 -0.469104,0.25176 -0.745945,0.34314 -1.232763,0.62849 -2.65681,1.55735 -4.747557,4.16558 -5.199016,6.69368 -0.451458,2.52811 -0.002,3.98144 0.01334,5.40813 0.01522,1.41478 -0.06182,1.52058 -0.347438,2.3105 -0.285619,0.78992 -0.955328,2.3325 -1.439598,4.66374 -0.303947,1.46315 -0.405397,2.93181 0.111603,4.51429 0.367547,1.12503 1.196861,2.06441 2.081538,2.80266 -0.05214,0.2027 -0.01974,0.10582 -0.08004,0.3299 -0.629994,2.34109 -1.179761,3.45653 -0.509158,5.97829 0.335301,1.26088 2.007193,3.36025 3.91406,3.72664 0.923956,0.17754 1.605351,0.1144 2.142067,-0.0172 0.11045,0.57022 0.180613,1.1892 0.361262,1.74596 0.171858,0.52966 0.314167,1.07126 0.980709,1.9569 0.333271,0.44282 0.833519,1.0362 1.833996,1.51734 1.000477,0.48113 2.594828,0.59748 3.724749,0.18949 2.259843,-0.81597 2.564755,-2.02771 2.882412,-2.6835 0.317658,-0.6558 0.461044,-1.15931 0.601543,-1.70097 0.281001,-1.08334 0.475129,-2.28887 0.668119,-3.84164 0.292091,-2.35027 0.463435,-3.14294 0.785368,-3.8619 0.02313,0.56084 0.03993,1.12849 0.08189,1.66835 0.03425,0.44062 0.06784,0.85156 0.179902,1.41378 0.05603,0.28111 0.119895,0.59643 0.324312,1.10172 0.204417,0.5053 0.415616,1.40372 1.978345,2.35542 1.241679,0.75615 2.674134,0.7682 3.511736,0.58807 0.837602,-0.18012 1.302692,-0.45807 1.662296,-0.68394 0.719206,-0.45174 1.045108,-0.80979 1.374466,-1.16407 0.658718,-0.70857 1.161805,-1.42397 1.673982,-2.2517 0.233324,-0.37706 0.433593,-0.82727 0.657985,-1.23217 l 0.470699,39.51316 3.162756,16.71925 9.105141,-3.6e-4 3.15841,-16.70134 0.76768,-40.0232 c 0.30318,0.58715 0.59462,1.19687 0.92154,1.7249 0.51244,0.82769 1.01699,1.54325 1.67592,2.25166 0.32947,0.3542 0.65559,0.71261 1.37477,1.16411 0.3596,0.22575 0.82495,0.50372 1.66233,0.68369 0.83739,0.17997 2.26765,0.16815 3.50936,-0.588 1.56285,-0.95167 1.77645,-1.85001 1.98088,-2.35545 0.20443,-0.50544 0.26625,-0.82025 0.32225,-1.10141 0.11201,-0.56232 0.14514,-0.97532 0.17932,-1.41596 0.0417,-0.53736 0.0594,-1.10208 0.0823,-1.66026 0.32083,0.71858 0.4915,1.50899 0.78321,3.85563 0.19298,1.55278 0.38856,2.75797 0.66958,3.84134 0.14051,0.54168 0.28416,1.04374 0.6018,1.6995 0.31764,0.65577 0.62355,1.86907 2.88279,2.68525 1.12962,0.4081 2.72203,0.29195 3.72273,-0.18902 1.0007,-0.48097 1.50247,-1.07504 1.83587,-1.51791 0.66679,-0.88574 0.80839,-1.42737 0.98028,-1.95708 0.18069,-0.5568 0.25134,-1.17539 0.3618,-1.74563 0.53696,0.13165 1.2201,0.19522 2.14443,0.0174 1.90758,-0.36705 3.57709,-2.46835 3.91193,-3.72885 0.66968,-2.52101 0.11806,-3.63559 -0.51192,-5.97656 -0.06,-0.22285 -0.0277,-0.12627 -0.0796,-0.32797 0.88557,-0.73818 1.71588,-1.67883 2.08391,-2.80488 0.51726,-1.58265 0.41524,-3.05038 0.11123,-4.51369 -0.48429,-2.33155 -1.15359,-3.8737 -1.43935,-4.66358 -0.28576,-0.78989 -0.36291,-0.89609 -0.34769,-2.31058 0.0154,-1.42689 0.46493,-2.88048 0.0133,-5.40856 -0.45169,-2.52808 -2.54385,-5.136 -5.20059,-6.69331 -0.48692,-0.28541 -0.76325,-0.37691 -1.23243,-0.62872 0.29504,-0.32947 0.58858,-0.66573 0.8433,-1.12479 1.30699,-2.35553 -0.34544,-5.5414 -0.34544,-5.5414 l -1.50964,-2.02139 -2.51792,0.17226 c 0,0 -1.39603,0.21356 -1.99999,0.27723 0.32778,-0.38704 0.70028,-0.70883 0.9925,-1.14678 4.15546,-6.22772 3.34612,-13.28352 1.56065,-18.30642 -0.89274,-2.51146 -2.02687,-4.62536 -3.08982,-6.24983 -0.53147,-0.81224 -1.03966,-1.49643 -1.55888,-2.09566 -0.25961,-0.29961 -0.51724,-0.57786 -0.84978,-0.87748 -0.33255,-0.29962 -0.57306,-0.65083 -1.75179,-1.10355 l -6.71124,-2.577644 0.42428,7.177794 c 0,0 0.23231,4.69786 -1.18018,9.54252 -0.87019,2.98463 -2.20724,5.5935 -4.40775,7.49217 l 0.47635,-36.367193 c 0.0716,-0.104496 0.15165,-0.147838 0.22045,-0.259497 0.97435,-1.581398 1.55465,-3.814648 1.4123,-6.490588 -0.16357,-3.067955 -1.30513,-5.55484 -2.38457,-7.562087 -1.07943,-2.007246 -2.25279,-3.698813 -2.50758,-4.138754 -0.0417,-0.07209 -0.58488,-1.425455 -0.90426,-2.560896 -0.31939,-1.135442 -0.54281,-2.152837 -0.58421,-2.343247 l -0.7112,-3.265645 z M 132.424,166.08213 c 0.22608,0.0491 0.35164,0.0824 0.49227,0.14865 -0.0144,0.007 -0.0214,0.01 -0.0354,0.017 -0.18771,-0.0838 -0.30321,-0.10912 -0.45687,-0.16563 z m 0.81831,0.29052 -1e-5,6.6e-4 c 0.0241,0.0136 0.0913,0.0386 0.11133,0.0489 -0.0626,-0.0321 -0.0658,-0.0155 -0.12533,-0.045 0.005,-7.7e-4 0.009,-0.004 0.014,-0.005 z m -68.398449,-0.29092 c -0.152738,0.0563 -0.26682,0.0832 -0.453117,0.16634 -0.01396,-0.007 -0.0207,-0.0102 -0.0351,-0.0176 0.117733,-0.0554 0.163441,-0.10284 0.33988,-0.14869 0.03331,-0.009 0.112665,0.008 0.148338,-4e-5 z m -0.814744,0.29156 c 0.0045,7.8e-4 0.0095,0.002 0.01394,0.003 -0.05947,0.0295 -0.06216,0.0135 -0.124787,0.0455 0.02004,-0.0103 0.08675,-0.0354 0.110848,-0.0489 z"
         inkscape:label="cutout" /><path
         id="path9435-3"
         style="display:inline;fill:url(#linearGradient4038);fill-opacity:1;fill-rule:nonzero;stroke:none;stroke-width:0.3411;stroke-linecap:butt;stroke-linejoin:miter;stroke-dasharray:none;stroke-opacity:1;image-rendering:auto"
         d="m 98.934218,63.012772 c -0.09213,0.424244 -0.975622,4.461732 -2.006139,6.241281 -1.001707,1.729628 -4.069744,5.75705 -4.276024,9.623926 -0.206186,3.866926 1.617082,4.725664 1.617082,4.725664 l -0.0052,45.333417 c -0.09409,-0.018 -0.181589,-0.0354 -0.278247,-0.0536 -15.934338,-2.95094 -14.663043,-24.44205 -14.663043,-24.44205 -1.238922,0.47582 -9.713762,12.41734 -3.496347,21.73522 3.215354,4.81892 12.470913,6.3459 18.529034,6.23623 l 0.241287,20.29577 c -4.358402,-1.84873 -12.11149,-5.15526 -12.56546,-5.48906 -0.630406,-0.46349 -0.113061,-3.20388 -0.113061,-3.20388 l 6.67764,0.025 c 0,0 0.165722,-1.53407 -0.224244,-2.43057 -0.39011,-0.89652 -1.113869,-1.16454 -5.541368,-4.00292 -4.427361,-2.83841 -12.181533,-3.36774 -12.181533,-3.36774 0,0 -0.675026,0.90341 1.982885,1.45412 2.657865,0.55071 3.577286,1.40473 3.785624,2.43704 0.208359,1.03234 -3.821663,2.25492 -7.871696,4.62888 -4.049985,2.37399 -2.936417,4.30133 -2.896022,8.05415 0.04038,3.75282 -1.077793,4.0879 -1.8835,7.96652 -0.805731,3.87866 1.984497,3.15817 2.541285,3.32486 0.556834,0.16668 0.624893,0.43999 -0.490341,4.58421 -1.115233,4.14425 -0.30826,4.12364 0.21313,3.85665 0.521414,-0.26696 2.338431,-0.3352 2.910149,-0.37372 0.571832,-0.0385 0.151002,-2.04931 1.062804,-1.88586 0.91185,0.16343 0.520874,0.15932 1.148593,4.67169 0.627721,4.51235 1.475964,4.58812 2.19207,-1.17356 0.716059,-5.76166 1.715667,-6.37964 4.452105,-9.7541 2.736555,-3.37445 3.990337,-0.4556 4.868099,0.73628 0.877925,1.19186 0.484471,7.97214 1.037031,8.30865 0.552581,0.33651 3.242638,-3.57046 3.589967,-6.2421 0.347305,-2.67164 -1.580937,-5.89475 -1.580937,-5.89475 0,0 0.426905,-0.38044 0.88804,-0.61088 0.302184,-0.15101 4.909459,1.58953 8.09933,2.82524 l 0.573258,48.18882 3.086434,16.31814 3.086547,-16.31815 0.92072,-48.10793 c 3.19224,-1.23844 8.00066,-3.06036 8.30899,-2.90622 0.4612,0.23044 0.88869,0.61108 0.88869,0.61108 0,0 -1.92935,3.22345 -1.58205,5.89509 0.34738,2.67164 3.03883,6.57809 3.59144,6.24158 0.55262,-0.33651 0.15782,-7.11666 1.03571,-8.30852 0.8778,-1.19188 2.13186,-4.11025 4.8683,-0.73579 2.73653,3.37446 3.73595,3.99165 4.45216,9.75331 0.71609,5.76168 1.5645,5.68626 2.19221,1.1739 0.62764,-4.51236 0.23654,-4.5081 1.14831,-4.67159 0.9118,-0.16345 0.4921,1.84718 1.06381,1.88579 0.57178,0.0385 2.38824,0.10695 2.90961,0.37395 0.5213,0.26699 1.32785,0.28732 0.2126,-3.85692 -1.11531,-4.14422 -1.0469,-4.41738 -0.49016,-4.58412 0.55685,-0.16669 3.34793,0.55359 2.54212,-3.32506 -0.80564,-3.87863 -1.92453,-4.21333 -1.88415,-7.96615 0.0404,-3.75282 1.1535,-5.68015 -2.89647,-8.05414 -4.05007,-2.37397 -8.07959,-3.5969 -7.87139,-4.62925 0.20836,-1.03231 1.1277,-1.88611 3.78559,-2.43682 2.65788,-0.55071 1.98298,-1.4541 1.98298,-1.4541 0,0 -7.75427,0.52892 -12.18177,3.36733 -4.42747,2.83837 -5.15137,3.10614 -5.54138,4.00265 -0.38999,0.8965 -0.22411,2.43132 -0.22411,2.43132 l 6.67809,-0.0255 c 0,0 0.5166,2.74041 -0.11377,3.2039 -0.4583,0.33704 -8.38155,3.7159 -12.71371,5.55316 l 0.38987,-20.36011 c 6.05806,0.10957 15.31344,-1.4172 18.52879,-6.23611 6.21738,-9.31788 -2.25725,-21.25923 -3.49615,-21.73505 0,0 1.27111,21.49128 -14.66326,24.44222 -0.0964,0.018 -0.18388,0.0359 -0.27786,0.0541 l 0.59252,-45.333613 c 0,0 1.82333,-0.858452 1.61708,-4.725378 -0.20617,-3.866876 -3.2733,-7.895086 -4.27501,-9.624714 -1.030494,-1.779548 -1.914721,-5.816803 -2.006966,-6.241047 z"
         inkscape:label="sword" /></g></g></svg>
